<?xml version="1.0" encoding="UTF-8"?>
<svg xmlns="http://www.w3.org/2000/svg" viewBox="0 0 1080 1080">
  <defs>
    <style>
      .cls-1, .cls-2, .cls-3, .cls-4, .cls-5 {
        fill: none;
      }

      .cls-1, .cls-2, .cls-6, .cls-7, .cls-4, .cls-5 {
        stroke: #231f20;
      }

      .cls-1, .cls-2, .cls-4 {
        stroke-width: 2px;
      }

      .cls-2 {
        stroke-dasharray: 0 0 0 0 0 0 4.93 4.93 4.93 4.93 4.93 4.93;
      }

      .cls-3, .cls-8, .cls-9 {
        stroke: #00563e;
        stroke-width: 10px;
      }

      .cls-8, .cls-7 {
        fill: #ffd301;
      }

      .cls-9 {
        fill: #ff7f02;
      }

      .cls-6, .cls-10 {
        fill: #231f20;
      }

      .cls-4 {
        stroke-dasharray: 0 0 0 0 4.93 4.93 4.93 4.93;
      }

      .cls-10, .cls-11 {
        stroke-width: 0px;
      }

      .cls-11 {
        fill: #00563e;
      }
    </style>
  </defs>
  <g id="Green_Logo" data-name="Green Logo">
    <g id="Plant">
      <g id="Petal_Left" data-name="Petal Left">
        <path class="cls-8" d="m436.1,460.14c0,16.39,1.77,39.64,11.83,50.89,11.46,12.83,34.64,19,53.09,19"/>
        <path class="cls-8" d="m497.47,529.26c.15-16.26,2.15-34.26-9.85-47.26-13-13-31-16-48.61-17.06"/>
      </g>
      <g id="Petal_Right" data-name="Petal Right">
        <path class="cls-8" d="m644.02,461.75c-17.52,1.73-42.21,5.87-53.3,16.63-12.64,12.26-17.08,34.09-15.34,51.65"/>
        <path class="cls-8" d="m575.88,527.45c17.44-1.58,36.92-1.6,49.74-14.28,12.73-13.62,14.27-30.9,13.77-47.61"/>
      </g>
      <g id="Petal_Middle" data-name="Petal Middle">
        <path class="cls-9" d="m539.76,376.92c-15.66,18.48-35.96,46.32-35.84,68.22.13,24.98,18.01,50.95,37.97,67.86"/>
        <path class="cls-9" d="m540.05,511.17c16.06-18.62,35.84-37.53,35.44-63.63-1.49-27.03-18.22-47.15-36.41-64.68"/>
      </g>
      <line id="Stem_Left" data-name="Stem Left" class="cls-3" x1="496.13" y1="525.8" x2="537.06" y2="562.69"/>
      <line id="Stem_Right" data-name="Stem Right" class="cls-3" x1="577.98" y1="528.17" x2="536.16" y2="564.06"/>
      <line id="Stem_Middle" data-name="Stem Middle" class="cls-3" x1="539.62" y1="509.17" x2="539.62" y2="618.69"/>
    </g>
    <g id="Circle">
      <path id="Green_Circle" data-name="Green Circle" class="cls-3" d="m357.86,655.6c1.13,1.19,2.27,2.36,3.42,3.53,46.97,1.32,93.94,1.81,140.93,1.44,32.41-.06,216-.28,216-.28,1.88,6.3,33.95-33.63,54.86-85.34,13.06-32.29,19.65-70.33,18.29-101.01-6.16-139.04-108.65-242.21-247.82-243.83-139.17-1.62-253.3,109.88-254.92,249.05-.8,68.29,25.66,130.54,69.24,176.44"/>
      <path id="Green_Mound" data-name="Green Mound" class="cls-11" d="m544.72,612.92c-40-2.67-123.39,23.67-125.22,48.98,61.8,2.94,123.65-1.31,185.46-.22l55.67-.86c-13.43-23.15-61.33-44.26-115.91-47.91Z"/>
    </g>
  </g>
  <g id="Bee">
    <path id="Yellow_Body" data-name="Yellow Body" class="cls-7" d="m417.56,379.66s.07-.09.1-.13l-.12-.03c-.36-3.5-5.73-11.99-14.03-14.62-11.38-3.6-21.01,1.39-23.47,4.48l-.08-.02s0,.08,0,.12c-.07.09-.15.18-.21.27l.23.06c.27,3.61,4.76,12.75,12.92,15.62,11.34,3.98,22-2.46,24.53-5.57l.14.04c0-.06-.02-.14-.02-.2Z"/>
    <g id="Stripes">
      <polygon class="cls-6" points="389.67 364.69 387.13 380.89 381.95 374.72 382.07 367.45 389.67 364.69"/>
      <polygon class="cls-6" points="394.03 364.03 390.41 384.09 395.18 385.9 398.47 364.12 394.03 364.03"/>
      <polygon class="cls-6" points="403.73 365.27 408.66 367.73 405.13 385.82 400.52 385.82 403.73 365.27"/>
      <polygon class="cls-6" points="412.61 372.01 410.39 384.01 417.29 379.41 414.83 374.72 412.61 372.01"/>
    </g>
    <ellipse class="cls-10" cx="375.48" cy="370.47" rx="9.06" ry="6.9" transform="translate(-48.89 683.75) rotate(-81.05)"/>
    <g>
      <path class="cls-10" d="m358.33,377.54c0-.82,1.01-1.63,3.14-2.19,2.4-.64,6.15-.98,10-.98"/>
      <path class="cls-10" d="m358.32,377.5c0,.66,3.8.7,4.77-.44.8-.94,3.35-1.2,8.37-2.72"/>
    </g>
    <g>
      <path class="cls-10" d="m363.09,355.93c.32.37.76,1.65.74,2.04-.01.31.13.18-.1.38-.32.28-.42.3-.87.13-.26-.1-1.1-.64-1.31-.89-.57-.66-.46-1.26.05-1.71s.92-.6,1.49.05Z"/>
      <path class="cls-10" d="m363.15,355.98c2.8,3.17,11.64,12.28,11.64,12.28l-13.24-10.7s0,0,0,0c.29.03.67-.57.84-.81.16-.22.69-.85.69-.85,0,0,.05.06.06.08Z"/>
    </g>
    <path id="Wing_Right" data-name="Wing Right" class="cls-5" d="m381.66,366.63l.4-5.15c.51-6.57,1.8-12.87,3.89-19.28v-.02s.03-.05.03-.05l3.63-6.5c.86-1.55,2.1-2.85,3.6-3.78h0c.97-.6,2.11-.87,3.25-.76h0c1.51.15,2.96.64,4.25,1.44l1.01.63c.54.34,1.01.77,1.4,1.28h0c1.25,1.65,2.2,3.52,2.79,5.52h0c.1.34.12.7.06,1.05l-.24,1.36c-.13.74-.3,1.47-.51,2.19h0c-.48,1.63-1.18,3.18-2.07,4.62h0c-.67,1.08-1.43,2.1-2.27,3.05h0c-2.11,2.36-4.3,4.65-6.57,6.87h0c-.86.84-1.78,1.62-2.74,2.34h0c-2.08,1.55-4.28,2.91-6.59,4.07h0c-.29.15-.59.27-.91.37l-2.4.77Z"/>
    <g id="Wing_Left" data-name="Wing Left">
      <path class="cls-5" d="m389.6,389.28l-2.43-3.47,2.43,3.47Z"/>
      <path class="cls-5" d="m387.21,385.86c-.19-.26-3.15-6.08-3.15-6.19l-2.54-4.62-1.39,6.12c-2.49,6.21-2.31,12.82-3.32,19.58v.03s0,.05,0,.05l.31,7.5c.07,1.78.59,3.51,1.51,5.01h0c.59.97,1.49,1.72,2.55,2.11h0c1.41.53,2.92.71,4.42.55l1.18-.13c.63-.07,1.25-.26,1.81-.55h0c1.86-.96,3.53-2.25,4.95-3.8h0c.24-.27.42-.58.52-.93l.4-1.35c.22-.73.39-1.47.53-2.22h0c.3-1.69.38-3.41.23-5.11h0c-.11-1.27-.33-2.54-.66-3.77h0c-.82-3.07-3.51-6.1-4.99-8.89"/>
    </g>
    <g id="Trail">
      <g>
        <path class="cls-1" d="m422.63,377.83c.7.06,1.54.13,2.49.19"/>
        <path class="cls-4" d="m430.05,378.27c.14,0,.27,0,.41.01,3.54.12,9.4.27,16.84-.23"/>
        <path class="cls-2" d="m449.75,377.87c15.79-1.31,37.77-5.61,59.73-18.61,0,0,21.19-12.55,30.69-27.62,3.77-5.98,6.29-12.43,6.29-12.43,2.28-5.83,3-9.91,3.53-11.97,3.52-13.69,21.16-25.61,37.75-29,5.74-1.17,14.65-2.99,24.4,1.23,12.84,5.56,17.93,17.59,19.18,20.56,1.32,3.12,3.38,9.1,2.76,25.01-.79,20.24-4.65,23.51-5.06,36.06-.14,4.2-.68,33.29,15.96,44.8,6.97,4.82,9.69,8.3,22.71,7.83,5.67-.21,15.28-5.28,24.7-4.45,21.19,1.86,32.48,3.01,41.89,11.66,8.82,8.11,14.11,21.09,13.35,33.45-.74,12.06-6.78,16.08-27,46.8-16.43,24.96-18.01,30.77-17.8,36.98.63,18.63,17.03,30.35,17.95,30.99,13.81,9.57,28.89,7.58,36.4,5.65"/>
        <path class="cls-1" d="m759.52,574.13c1.27-.4,2.08-.72,2.35-.83"/>
      </g>
    </g>
  </g>
  <g id="Text">
    <line id="Top_Line" data-name="Top Line" class="cls-3" x1="212.6" y1="662.06" x2="867.52" y2="660.89"/>
    <line id="Bottom_Line" data-name="Bottom Line" class="cls-3" x1="212.6" y1="848.92" x2="867.52" y2="847.76"/>
    <path class="cls-11" d="m244.51,738.89h-12v-54.4h20.4c8.8,0,16.64,7.12,16.64,17.44,0,11.04-7.84,17.52-16.64,17.52h-8.4v19.44Zm0-44.96v16.08h6.4c3.52,0,7.2-2.88,7.2-8.08s-3.68-8-7.2-8h-6.4Z"/>
    <path class="cls-11" d="m287.54,684.49h12v43.52h19.52v10.88h-31.52v-54.4Z"/>
    <path class="cls-11" d="m375.71,738.89l-3.92-10.96h-20.72l-3.92,10.96h-12.88l22.08-54.4h10.16l22.08,54.4h-12.88Zm-14.32-40.16l-6.88,19.36h13.76l-6.88-19.36Z"/>
    <path class="cls-11" d="m436.5,738.89l-18.72-33.92v33.92h-12v-54.4h12l18.72,33.92v-33.92h12v54.4h-12Z"/>
    <path class="cls-11" d="m493.22,738.89h-12v-43.52h-15.52v-10.88h43.04v10.88h-15.52v43.52Z"/>
    <path class="cls-11" d="m594.98,738.89l-3.92-10.96h-20.72l-3.92,10.96h-12.88l22.08-54.4h10.16l22.08,54.4h-12.88Zm-14.32-40.16l-6.88,19.36h13.76l-6.88-19.36Z"/>
    <path class="cls-11" d="m632.58,711.85c0,9.2,7.2,16.96,15.84,16.96,5.28,0,12-1.68,14.96-9.92h-13.84v-9.04h26.8v1.84c0,15.44-12.4,28-27.92,28s-28-12.64-28-28,12.64-28,28-28c12,0,22.8,7.84,26.56,19.12h-13.2c-2.64-5.76-8.08-7.92-13.36-7.92-8.64,0-15.84,7.76-15.84,16.96Z"/>
    <path class="cls-11" d="m727.46,738.89h-31.52v-54.4h31.52v10.88h-19.52v10.8h18.72v10.88h-18.72v10.96h19.52v10.88Z"/>
    <path class="cls-11" d="m779.78,738.89l-18.72-33.92v33.92h-12v-54.4h12l18.72,33.92v-33.92h12v54.4h-12Z"/>
    <path class="cls-11" d="m836.5,738.89h-12v-43.52h-15.52v-10.88h43.04v10.88h-15.52v43.52Z"/>
    <path class="cls-11" d="m285.75,807.4c-3.68,11.2-14.24,19.28-26.64,19.28-15.44,0-28-12.56-28-28s12.56-28,28-28c12.4,0,22.88,8,26.56,19.12h-13.36c-2.24-4.88-7.68-7.92-13.2-7.92-8.8,0-15.84,7.6-15.84,16.8s7.04,16.8,15.84,16.8c5.6,0,11.04-3.28,13.28-8.08h13.36Z"/>
    <path class="cls-11" d="m336.55,826.68c-15.04,0-28-12.96-28-28s12.96-28,28-28,28,12.96,28,28-12.96,28-28,28Zm0-44.08c-8.4,0-16,7.6-16,16s7.6,16.08,16,16.08,16-7.68,16-16.08-7.6-16-16-16Z"/>
    <path class="cls-11" d="m390.14,771.48h12v43.52h19.52v10.88h-31.52v-54.4Z"/>
    <path class="cls-11" d="m447.26,771.48h12v43.52h19.52v10.88h-31.52v-54.4Z"/>
    <path class="cls-11" d="m535.91,825.88h-31.52v-54.4h31.52v10.88h-19.52v10.8h18.72v10.88h-18.72v10.96h19.52v10.88Z"/>
    <path class="cls-11" d="m616.14,807.4c-3.68,11.2-14.24,19.28-26.64,19.28-15.44,0-28-12.56-28-28s12.56-28,28-28c12.4,0,22.88,8,26.56,19.12h-13.36c-2.24-4.88-7.68-7.92-13.2-7.92-8.8,0-15.84,7.6-15.84,16.8s7.04,16.8,15.84,16.8c5.6,0,11.04-3.28,13.28-8.08h13.36Z"/>
    <path class="cls-11" d="m664.06,825.88h-12v-43.52h-15.52v-10.88h43.04v10.88h-15.52v43.52Z"/>
    <path class="cls-11" d="m702.78,825.88v-54.4h12v54.4h-12Z"/>
    <path class="cls-11" d="m770.3,825.88h-10.32l-22-54.4h12.96l11.2,30.56,2.96,8.56,2.96-8.56,11.28-30.56h12.96l-22,54.4Z"/>
    <path class="cls-11" d="m847.02,825.88h-31.52v-54.4h31.52v10.88h-19.52v10.8h18.72v10.88h-18.72v10.96h19.52v10.88Z"/>
  </g>
</svg>